<svg width="640" height="170" viewBox="0 0 640 170" fill="none" xmlns="http://www.w3.org/2000/svg">
  <defs>
    <linearGradient id="leafMain" x1="0" y1="0" x2="1" y2="1">
      <stop stop-color="#2D7B58"/>
      <stop offset="1" stop-color="#1E533D"/>
    </linearGradient>
    <linearGradient id="leafSoft" x1="0" y1="0" x2="1" y2="1">
      <stop stop-color="#7AB48F"/>
      <stop offset="1" stop-color="#3D8860"/>
    </linearGradient>
    <linearGradient id="dotAccent" x1="0" y1="0" x2="1" y2="1">
      <stop stop-color="#DFA35E"/>
      <stop offset="1" stop-color="#B97B39"/>
    </linearGradient>
    <linearGradient id="cloudCore" x1="0" y1="0" x2="1" y2="1">
      <stop stop-color="#DCE9DF"/>
      <stop offset="1" stop-color="#F2F7F1"/>
    </linearGradient>
  </defs>

  <rect x="10" y="24" width="124" height="124" rx="36" fill="#EFF5EC"/>
  <path d="M29 101C29 87.2 40.2 76 54 76C58 62 70.8 52 86 52C104 52 118.8 66.8 118.8 85C126 87.8 131 95 131 103.5C131 114.8 121.8 124 110.5 124H52.5C39.5 124 29 113.5 29 101Z" fill="url(#cloudCore)"/>
  <path d="M58 100C58 72.8 80.1 50.7 107.3 50.7H116.6C89.4 50.7 67.3 72.8 67.3 100V124H58V100Z" fill="url(#leafMain)"/>
  <path d="M48 95.6C48 74 65.6 56.4 87.2 56.4H94.2C72.6 56.4 55 74 55 95.6V117.6H48V95.6Z" fill="url(#leafSoft)" opacity="0.95"/>
  <circle cx="45" cy="49" r="10" fill="url(#dotAccent)"/>

  <text x="152" y="82" fill="#1E3E30" font-size="46" font-weight="700" font-family="Manrope, Arial, sans-serif">Nutri</text>
  <text x="284" y="82" fill="#2D7B58" font-size="46" font-weight="700" font-family="Manrope, Arial, sans-serif">Cloud</text>
  <text x="154" y="116" fill="#677B6D" font-size="18" font-weight="500" font-family="Manrope, Arial, sans-serif">
    Coaching nutrition premium
  </text>
</svg>
