<svg width="560" height="160" viewBox="0 0 560 160" fill="none" xmlns="http://www.w3.org/2000/svg">
  <defs>
    <linearGradient id="leafMain" x1="0" y1="0" x2="1" y2="1">
      <stop stop-color="#0F7A68"/>
      <stop offset="1" stop-color="#0A4F45"/>
    </linearGradient>
    <linearGradient id="leafSoft" x1="0" y1="0" x2="1" y2="1">
      <stop stop-color="#54B29E"/>
      <stop offset="1" stop-color="#22856F"/>
    </linearGradient>
    <linearGradient id="dotAccent" x1="0" y1="0" x2="1" y2="1">
      <stop stop-color="#F3A260"/>
      <stop offset="1" stop-color="#E1763F"/>
    </linearGradient>
  </defs>

  <rect x="10" y="20" width="120" height="120" rx="34" fill="#EAF3EE"/>
  <path d="M47 94C47 59.2 75.2 31 110 31H122C87.2 31 59 59.2 59 94V126H47V94Z" fill="url(#leafMain)"/>
  <path d="M37 89C37 61.4 59.4 39 87 39H95C67.4 39 45 61.4 45 89V117H37V89Z" fill="url(#leafSoft)" opacity="0.92"/>
  <circle cx="42" cy="44" r="11" fill="url(#dotAccent)"/>

  <text x="152" y="78" fill="#123430" font-size="44" font-weight="700" font-family="Manrope, Arial, sans-serif">Nutri</text>
  <text x="272" y="78" fill="#0D5C52" font-size="44" font-weight="700" font-family="Manrope, Arial, sans-serif">Cloud</text>
  <text x="154" y="110" fill="#5B736F" font-size="18" font-weight="500" font-family="Manrope, Arial, sans-serif">
    Coaching nutrition moderne
  </text>
</svg>
